<mxfile host="app.diagrams.net" modified="2022-10-18T05:56:42.448Z" agent="5.0 (Windows NT 10.0; Win64; x64) AppleWebKit/537.36 (KHTML, like Gecko) Chrome/106.0.0.0 Safari/537.36" etag="Da-6E66croRfVw0l4wO2" version="20.4.1" type="github">
  <diagram id="GnzRtK2g57-_hA0YiGj8" name="Page-1">
    <mxGraphModel dx="2912" dy="1122" grid="1" gridSize="10" guides="1" tooltips="1" connect="1" arrows="1" fold="1" page="1" pageScale="1" pageWidth="850" pageHeight="1100" math="0" shadow="0">
      <root>
        <mxCell id="0" />
        <mxCell id="1" parent="0" />
        <mxCell id="wF1Tybv0MgOXDzKyJFul-1" value="&lt;font style=&quot;font-size: 14px;&quot;&gt;Admin &lt;br&gt;(&lt;span style=&quot;font-family: Arial, sans-serif;&quot;&gt;Back Officer&lt;/span&gt;)&lt;/font&gt;" style="shape=umlActor;verticalLabelPosition=bottom;verticalAlign=top;html=1;fillColor=#000000;" vertex="1" parent="1">
          <mxGeometry x="-150" y="320" width="70" height="110" as="geometry" />
        </mxCell>
        <mxCell id="wF1Tybv0MgOXDzKyJFul-2" value="Manage&amp;nbsp;&lt;span&gt;Janitors&amp;nbsp;&amp;nbsp;And Collectors&lt;/span&gt;" style="shape=umlFrame;whiteSpace=wrap;html=1;fontSize=14;width=280;height=40;fillColor=#ffcc99;strokeColor=#36393d;strokeWidth=3;gradientColor=none;swimlaneFillColor=default;" vertex="1" parent="1">
          <mxGeometry x="70" y="110" width="710" height="480" as="geometry" />
        </mxCell>
        <mxCell id="wF1Tybv0MgOXDzKyJFul-3" value="Chi tiết thông tin, &lt;br&gt;lịch làm việc" style="ellipse;whiteSpace=wrap;html=1;fontSize=14;fillColor=#cce5ff;strokeColor=#36393d;" vertex="1" parent="1">
          <mxGeometry x="290" y="180" width="160" height="70" as="geometry" />
        </mxCell>
        <mxCell id="wF1Tybv0MgOXDzKyJFul-4" value="Tạo tuyến đường" style="ellipse;whiteSpace=wrap;html=1;fontSize=14;fillColor=#cce5ff;strokeColor=#36393d;" vertex="1" parent="1">
          <mxGeometry x="475" y="490" width="140" height="70" as="geometry" />
        </mxCell>
        <mxCell id="wF1Tybv0MgOXDzKyJFul-5" value="&amp;lt;&amp;lt;extend&amp;gt;&amp;gt;" style="endArrow=open;endSize=12;dashed=1;html=1;rounded=0;fontSize=14;exitX=0;exitY=1;exitDx=0;exitDy=0;" edge="1" parent="1" source="wF1Tybv0MgOXDzKyJFul-3" target="wF1Tybv0MgOXDzKyJFul-7">
          <mxGeometry width="160" relative="1" as="geometry">
            <mxPoint x="730" y="189.9699999999999" as="sourcePoint" />
            <mxPoint x="470" y="390" as="targetPoint" />
          </mxGeometry>
        </mxCell>
        <mxCell id="wF1Tybv0MgOXDzKyJFul-6" value="&amp;lt;&amp;lt;extend&amp;gt;&amp;gt;" style="endArrow=open;endSize=12;dashed=1;html=1;rounded=0;fontSize=14;exitX=0;exitY=0;exitDx=0;exitDy=0;" edge="1" parent="1" source="wF1Tybv0MgOXDzKyJFul-4" target="wF1Tybv0MgOXDzKyJFul-7">
          <mxGeometry width="160" relative="1" as="geometry">
            <mxPoint x="720" y="179.9699999999999" as="sourcePoint" />
            <mxPoint x="470" y="390" as="targetPoint" />
          </mxGeometry>
        </mxCell>
        <mxCell id="wF1Tybv0MgOXDzKyJFul-7" value="Xem tổng quan&amp;nbsp;&lt;a name=&quot;OLE_LINK27&quot;&gt;&lt;span&gt;Janitors&lt;br&gt;và Collectors&lt;/span&gt;&lt;/a&gt;" style="ellipse;whiteSpace=wrap;html=1;fontSize=14;fillColor=#cce5ff;strokeColor=#36393d;" vertex="1" parent="1">
          <mxGeometry x="200" y="360" width="140" height="70" as="geometry" />
        </mxCell>
        <mxCell id="wF1Tybv0MgOXDzKyJFul-8" value="" style="endArrow=openThin;endFill=0;html=1;rounded=0;fontSize=14;entryX=0;entryY=0.5;entryDx=0;entryDy=0;" edge="1" parent="1" source="wF1Tybv0MgOXDzKyJFul-1" target="wF1Tybv0MgOXDzKyJFul-7">
          <mxGeometry width="160" relative="1" as="geometry">
            <mxPoint x="-100" y="370" as="sourcePoint" />
            <mxPoint x="100" y="385" as="targetPoint" />
          </mxGeometry>
        </mxCell>
        <mxCell id="wF1Tybv0MgOXDzKyJFul-9" value="Xác định &lt;br&gt;khu vực thu gon" style="ellipse;whiteSpace=wrap;html=1;fontSize=14;fillColor=#cce5ff;strokeColor=#36393d;" vertex="1" parent="1">
          <mxGeometry x="540" y="270" width="160" height="70" as="geometry" />
        </mxCell>
        <mxCell id="wF1Tybv0MgOXDzKyJFul-10" value="&amp;lt;&amp;lt;extend&amp;gt;&amp;gt;" style="endArrow=open;endSize=12;dashed=1;html=1;rounded=0;fontSize=14;exitX=0;exitY=0.5;exitDx=0;exitDy=0;" edge="1" parent="1" source="wF1Tybv0MgOXDzKyJFul-9" target="wF1Tybv0MgOXDzKyJFul-7">
          <mxGeometry width="160" relative="1" as="geometry">
            <mxPoint x="600" y="255" as="sourcePoint" />
            <mxPoint x="475.94000000000005" y="383.03" as="targetPoint" />
          </mxGeometry>
        </mxCell>
        <mxCell id="wF1Tybv0MgOXDzKyJFul-11" style="edgeStyle=orthogonalEdgeStyle;rounded=0;orthogonalLoop=1;jettySize=auto;html=1;exitX=0.5;exitY=1;exitDx=0;exitDy=0;" edge="1" parent="1" source="wF1Tybv0MgOXDzKyJFul-9" target="wF1Tybv0MgOXDzKyJFul-9">
          <mxGeometry relative="1" as="geometry" />
        </mxCell>
        <mxCell id="wF1Tybv0MgOXDzKyJFul-12" style="edgeStyle=orthogonalEdgeStyle;rounded=0;orthogonalLoop=1;jettySize=auto;html=1;exitX=0.5;exitY=1;exitDx=0;exitDy=0;" edge="1" parent="1" source="wF1Tybv0MgOXDzKyJFul-4" target="wF1Tybv0MgOXDzKyJFul-4">
          <mxGeometry relative="1" as="geometry" />
        </mxCell>
      </root>
    </mxGraphModel>
  </diagram>
</mxfile>
